inDegrees=no
num_controls=7
num_derivatives=13
num_iterations=128
num_multipliers=7
num_parameters=0
num_slacks=7
num_states=26
objective=0.478457
objective_accelerations=0.042355
objective_balance=0.003296
objective_effort=0.040219
objective_height=0.386872
objective_ligament=0.005715
solver_duration=1683.167029
status=Solve_Succeeded
success=true
DataType=double
version=3
OpenSimVersion=4.5
endheader
time	/jointset/ground_pelvis/pelvis_tilt/value	/jointset/ground_pelvis/pelvis_tx/value	/jointset/ground_pelvis/pelvis_ty/value	/jointset/hip_l/hip_flexion_l/value	/jointset/hip_l/hip_adduction_l/value	/jointset/hip_l/hip_rotation_l/value	/jointset/back/lumbar_extension/value	/jointset/patellofemoral_l/patellar_flexion_l/value	/jointset/knee_l/knee_flexion_l/value	/jointset/knee_l/knee_adduction_l/value	/jointset/knee_l/knee_rotation_l/value	/jointset/ankle_l/ankle_angle_l/value	/jointset/subtalar_l/subtalar_angle_l/value	/jointset/ground_pelvis/pelvis_tilt/speed	/jointset/ground_pelvis/pelvis_tx/speed	/jointset/ground_pelvis/pelvis_ty/speed	/jointset/hip_l/hip_flexion_l/speed	/jointset/hip_l/hip_adduction_l/speed	/jointset/hip_l/hip_rotation_l/speed	/jointset/back/lumbar_extension/speed	/jointset/patellofemoral_l/patellar_flexion_l/speed	/jointset/knee_l/knee_flexion_l/speed	/jointset/knee_l/knee_adduction_l/speed	/jointset/knee_l/knee_rotation_l/speed	/jointset/ankle_l/ankle_angle_l/speed	/jointset/subtalar_l/subtalar_angle_l/speed	/forceset/tau_hip_flexion_l	/forceset/tau_hip_adduction_l	/forceset/tau_hip_rotation_l	/forceset/tau_knee_flexion_l	/forceset/tau_ankle_angle_l	/forceset/tau_subtalar_angle_l	/forceset/tau_lumbar_extension	lambda_cid13_p0	lambda_cid13_p1	lambda_cid13_p2	lambda_cid13_p3	lambda_cid13_p4	lambda_cid13_p5	lambda_cid14_p0	/jointset/ground_pelvis/pelvis_tilt/accel	/jointset/ground_pelvis/pelvis_tx/accel	/jointset/ground_pelvis/pelvis_ty/accel	/jointset/hip_l/hip_flexion_l/accel	/jointset/hip_l/hip_adduction_l/accel	/jointset/hip_l/hip_rotation_l/accel	/jointset/back/lumbar_extension/accel	/jointset/patellofemoral_l/patellar_flexion_l/accel	/jointset/knee_l/knee_flexion_l/accel	/jointset/knee_l/knee_adduction_l/accel	/jointset/knee_l/knee_rotation_l/accel	/jointset/ankle_l/ankle_angle_l/accel	/jointset/subtalar_l/subtalar_angle_l/accel	gamma_cid13_p0	gamma_cid13_p1	gamma_cid13_p2	gamma_cid13_p3	gamma_cid13_p4	gamma_cid13_p5	gamma_cid14_p0
1.5	0.01851664162953252	-0.01052237507722238	0.8572035791637116	0.6466260495669041	-0.3226520193624808	-0.1380350072912772	-0.7932046866520075	0.7564780716735505	0.7564780716734418	-0.1076858510640184	-0.1745284579855571	0.1471435062150763	0.02168941701590807	0.2941356627136253	0.2327136620884911	0.4010993739003205	-1.91006727220059	0.08779017612532342	-0.6333858052849518	0.8369641685283479	-1.93940465978253	-1.939404659782548	-0.1343312034378272	-0.0001118265170106638	-0.4411736024752036	-0.05328090443921856	-0.1883080360245546	0.02129521231559924	-0.004788395170761153	-0.2282868516454981	0.07089157379306903	0.03976365489148494	0.2737034426825107	-19.52565871089048	-16.1771932142193	4.782361316627833	-7.665226970397221	-670.4516487155317	-76.13070639894836	-16.04414976953896	-0.03801770965994358	0.6275622672596982	-0.5938989089272414	-0.637812130515193	0.4573339452332155	-0.3132761502424504	1.911237052692718	-0.932811988529159	-0.932811988529111	-0.2745143655515073	0.03765160206208345	-0.2385438866081113	0.4420442191081381	1.337317237603215e-07	1.369821751668835e-06	-3.251209846452108e-07	1.415934774462714e-07	2.246428488751471e-07	4.88102499329863e-07	1.844894387263114e-07
1.51	0.02145594350059132	-0.008164043481028416	0.8611841296701235	0.6274951524354311	-0.3217519041322779	-0.1443853918323397	-0.7847407171872504	0.7370395867198182	0.73703958671971	-0.1090433404822597	-0.1745295801638674	0.1427203374953102	0.02117805725262144	0.2936861192589825	0.2389311245738495	0.3949324748105802	-1.915877687521187	0.09223140540814337	-0.6366259827777548	0.8557315924008868	-1.948032171762458	-1.948032171762442	-0.1371658760230904	-0.0001108001876688914	-0.4433758105817231	-0.04897120571419007	-0.1815775106030652	0.0205296089361252	-0.004644154971429592	-0.2244680125987648	0.0713937879239494	0.03902316466922205	0.267108371445305	-19.1583204844197	-15.96400583574312	4.798733869544637	-7.621376596959143	-666.3915596972208	-76.00009172982881	-16.72559287603184	-0.05421336979793978	0.615642480293235	-0.6397755310808051	-0.5174879970491967	0.4371373897485537	-0.3194469558092898	1.844775251225977	-0.7887333285671646	-0.7887333285621708	-0.2875714901212055	-0.01844041260190194	-0.1983577409218621	0.428181570676727	1.215372792428122e-07	1.498633404088373e-06	-2.287891029125164e-07	1.607629645112315e-07	2.339985619091569e-07	5.118996058934407e-07	1.828663109422704e-07
1.52	0.02438959179581758	-0.005744176411756978	0.8651006731612211	0.6083131847979085	-0.320807452615259	-0.1507661898297319	-0.7760920174444293	0.7175226241411191	0.7175226241410094	-0.1104291021833767	-0.1745306457910752	0.1382776870008292	0.02071034425088036	0.2930049475470789	0.2450207567039865	0.3882979708375045	-1.920281373410472	0.09665743348865059	-0.6394684965509609	0.8739102241410844	-1.95510018477609	-1.955100184776041	-0.1399856600126525	-0.0001005162972125649	-0.4450699574181625	-0.04455155213010086	-0.1748469851815766	0.01976400555665041	-0.004499914772116551	-0.220649173552031	0.07189600205482953	0.03828267444695843	0.260513300208099	-18.79066888537033	-15.75251179075999	4.817248087015982	-7.611003150557624	-662.3548114797935	-75.89830089176422	-17.39812955180718	-0.0843433611120732	0.6019961962153996	-0.6874198855943269	-0.3564662442528071	0.4542937047706878	-0.2337434063230521	1.79347862622446	-0.6209121952701999	-0.620912195270195	-0.2715366464112705	0.0395031142850539	-0.1369316325920985	0.4640351909202979	1.051233588469493e-07	1.601784907008551e-06	-1.353200647079506e-07	1.803034160130862e-07	2.319597150536956e-07	5.229138909426737e-07	1.79284216873525e-07
1.53	0.02731524227565247	-0.003264121994658517	0.8689485948558489	0.589094306320942	-0.3198187619046124	-0.157173734125155	-0.767264629273267	0.6979428581750514	0.697942858174964	-0.1118426731423808	-0.1745317277071287	0.1338206648512646	0.02028746126140627	0.2920865609801541	0.2509611135018492	0.3812149675828007	-1.923253931219188	0.1010775850239754	-0.6419701782422242	0.8914494109035279	-1.960587381260003	-1.960587381259983	-0.1427240070335321	-0.0001095511099317999	-0.4462495894276561	-0.04000705609179731	-0.1679997960048463	0.01867927328525667	-0.004410616404226311	-0.217016538217598	0.07234262401835441	0.03765697290731786	0.2538025836980276	-18.45060829177735	-15.58999185319644	4.848084516485236	-7.511519990112369	-658.4918390826535	-75.9505063285699	-18.06262395655275	-0.1013829192152546	0.5857456214658074	-0.7294085729439734	-0.2316016570653785	0.4351971244265531	-0.2476944801236906	1.716438823099527	-0.4728134160891482	-0.4728134160934092	-0.2740198800701659	-0.02016862103538451	-0.09569302062360077	0.4520825468394766	8.422624533033569e-08	1.67767250108566e-06	-4.489279775202111e-08	2.002380172291413e-07	2.178141483156713e-07	5.203464281329157e-07	1.736207211272811e-07
1.54	0.03023054956687181	-0.0007255259696025727	0.8727235529124225	0.5698529120443113	-0.3187860054293104	-0.1636041580234096	-0.7582653892101112	0.6783161822359171	0.6783161822358516	-0.1132834348016224	-0.1745327123397232	0.129354403574506	0.01991050837962602	0.2909363098239256	0.2567290782954833	0.3737052432266719	-1.924784533343283	0.1054705864198276	-0.6440444171173172	0.9082806025397793	-1.964482179389408	-1.964482179389416	-0.1454238000601663	-8.105960205090709e-05	-0.4469177828569741	-0.03536553059133044	-0.1611526068281164	0.01759454101386269	-0.004321318036338184	-0.2133839028831652	0.07278924598187908	0.037031271367677	0.247091867187956	-18.11130031178092	-15.42802679157008	4.879793860482466	-7.439162884911557	-654.6659371501323	-76.02634578896301	-18.71262276145344	-0.1307162789727843	0.5675177953696839	-0.77276410587934	-0.06807510732883394	0.4488636768761848	-0.1482548430889446	1.651879600986025	-0.3024325243686639	-0.3024325243686796	-0.2638258475621782	0.04700837840511481	-0.03464391655699431	0.4834410833529702	7.73964102607497e-08	1.696918396812953e-06	-4.610703918766872e-08	2.068459285210804e-07	2.107542359680468e-07	5.255197848548054e-07	1.747049392364084e-07
1.55	0.03313310778385413	0.001869814766129661	0.8764213235468975	0.5506036332462212	-0.3177095005351749	-0.1700527848194946	-0.7491014914349127	0.6586586644694916	0.6586586644694268	-0.1147512232650666	-0.1745329251994329	0.12488404338988	0.01958041380733987	0.2895353716327042	0.2623020958882509	0.3657840880015754	-1.924818281042042	0.1098260098651268	-0.6456010001939355	0.9243582861121352	-1.966744394583787	-1.966744394583792	-0.1481208607522356	5.295193309114556e-05	-0.4470668377546452	-0.03063579614645539	-0.1541289920097791	0.01657048200718128	-0.004298550402174451	-0.2099774693990388	0.0734404869518971	0.03615015938009297	0.2402264484740865	-17.72845706068538	-15.15201741657422	4.881050866878047	-7.311429125071458	-650.9899908085605	-75.90792546374858	-19.33833916745366	-0.1507814177048101	0.5466864447578633	-0.811468086531728	0.06691178898974004	0.4280512958906765	-0.1471963096318278	1.564612777216214	-0.1466068172640355	-0.1466068172635512	-0.2704319846596175	-0.001130788413370476	0.008124031503393213	0.4701453415517736	8.677452644534678e-08	1.650903205311116e-06	-1.529082359440406e-07	1.980991753352345e-07	2.118582297658826e-07	5.396119119066369e-07	1.83563697222376e-07
1.56	0.03602045685322287	0.004519784218495127	0.8800379472579802	0.5313616042491711	-0.3165896074830798	-0.1765145447002832	-0.7397810368156194	0.638986826391067	0.6389868263909974	-0.1162455394963602	-0.1745313538870954	0.1204148247178523	0.01929809772280185	0.2878944803011624	0.2676548216221296	0.3574758585481986	-1.923334573135234	0.1141482180117824	-0.6466710340578975	0.9395919713587232	-1.967346241789828	-1.96734624178983	-0.1507293536295177	0.0002778302889463371	-0.4466894803372941	-0.02580983304170097	-0.147105377191445	0.0155464230004957	-0.004275782768043052	-0.2065710359149122	0.0740917279219136	0.03526904739250412	0.233361029760216	-17.34956265598691	-14.87600650442842	4.88309611026206	-7.200962867282017	-647.3955343674494	-75.82236352663507	-19.93552248099721	-0.1787069070368275	0.5234594235919157	-0.8501789515353939	0.2354160137846323	0.4422206171474711	-0.05094500055771792	1.483079935832455	0.02964107329875088	0.02964107329875102	-0.2461122846047218	0.0651817425477309	0.07063854644744143	0.5026868153288371	8.347576652298802e-08	1.635826281403006e-06	-1.826308940570142e-07	1.971059522294945e-07	2.076967550889059e-07	5.399892525265142e-07	1.847939895016029e-07
1.57	0.03889014834093742	0.00722208880798541	0.8835696165798104	0.512142183543945	-0.3154266414486162	-0.1829845744682369	-0.7303126867316043	0.6193173967544248	0.6193173967543385	-0.1177653670160991	-0.1745270544268568	0.1159520203188446	0.01906455283736534	0.2860026345089836	0.2727597041319915	0.3488000340689109	-1.920282311737783	0.1184328037315625	-0.6472343437099803	0.9539101143122206	-1.966250433967772	-1.966250433967774	-0.1532304922835666	0.0006077052193093604	-0.4457849879010353	-0.02089066901158936	-0.1398798290261308	0.01418232415400455	-0.004311157228022537	-0.2034101663506311	0.0748404873041689	0.03446150764278268	0.2263224803431462	-16.94878985232721	-14.63573071474032	4.890783107812824	-7.027536674556544	-643.9431161485562	-75.8691637044594	-20.49988252273889	-0.2006114504596267	0.4970860056506994	-0.8849418048861863	0.3802073952319603	0.41954616948595	-0.04378474527147162	1.380991805320392	0.1929040308780599	0.1929040308779217	-0.2509912680529075	0.02070627666492127	0.1133623256941982	0.4875471619206786	6.433091146693461e-08	1.659422191987055e-06	-1.160053788657408e-07	2.058046417238867e-07	1.969534448184136e-07	5.232231101064491e-07	1.76488699647404e-07
1.58	0.04173968376370022	0.009974058890767834	0.8870127961350954	0.4929613006911945	-0.3142212358329363	-0.18945718949226	-0.7207061931520117	0.5996675958748504	0.5996675958747408	-0.119309981244831	-0.1745186930356346	0.1115008623908952	0.01888040278524362	0.2838632673107553	0.2775879202805574	0.3397779052391914	-1.915627002640063	0.122636134255051	-0.6471880852715803	0.9672206704741972	-1.963420490376957	-1.963420490376961	-0.1556866954275332	0.001090216485043683	-0.4443601861256129	-0.0159308663787442	-0.1326542808608209	0.01281822530750813	-0.004346531688040151	-0.2002492967863498	0.07558924668642213	0.03365396789305514	0.2192839309260751	-16.55266751541989	-14.39379316595017	4.897237690155043	-6.865856422926825	-640.5815806138154	-75.94165075238321	-21.02718408529836	-0.2282111882467089	0.4681261513327258	-0.9194398216217452	0.5560255538386041	0.4259695778891481	0.07096861753883463	1.281562577528355	0.3764682270504452	0.3764682270504491	-0.2371251825882627	0.0957090096219634	0.1747004142801436	0.5108145358755346	4.773183453909925e-08	1.66693111228531e-06	-6.326029796108471e-08	2.110330555519026e-07	1.885348878124835e-07	5.057695677741085e-07	1.685023780649523e-07
1.59	0.04456653561662119	0.01277282106647038	0.8903640947794055	0.4738352085094416	-0.3129741511526686	-0.1959265209858755	-0.7109718651626115	0.5800549067980492	0.5800549067979245	-0.1208785945501245	-0.1745048851115586	0.1070665517541331	0.0187461260651219	0.2814646884694278	0.2821071171551242	0.3304315666899639	-1.909305606943965	0.1267659043305131	-0.6465938209354208	0.9794480432653973	-1.95881223630322	-1.958812236303211	-0.1580077676557851	0.001679225957858262	-0.4424166229387505	-0.01091849998688037	-0.1252676250502772	0.01152784010509508	-0.004453838043950592	-0.1972839594556969	0.07646356808611529	0.03261766157957784	0.2121125079950184	-16.14096631693888	-14.04572369177668	4.875912868944687	-6.6124701413832	-637.4131788709125	-75.8421783224121	-21.51326721733535	-0.2520580145560983	0.4352491719498034	-0.9497333846087698	0.7130541976242218	0.4040316244611447	0.06644901556550613	1.163792008871914	0.5487360100731926	0.5487360100751044	-0.2250943651950935	0.04165476788394547	0.2170244209668425	0.4970859625481498	3.458774221384538e-08	1.652607688624271e-06	-2.935294930255085e-08	2.115518095469793e-07	1.832713530941733e-07	4.873831255608225e-07	1.609489419941572e-07
